<mxfile host="app.diagrams.net" modified="2024-03-12T03:41:26.222Z" agent="Mozilla/5.0 (Windows NT 10.0; Win64; x64) AppleWebKit/537.36 (KHTML, like Gecko) Chrome/122.0.0.0 Safari/537.36 Edg/122.0.0.0" etag="4OlD8gU9e7_p_xCBE2hB" version="24.0.4" type="github">
  <diagram name="第 1 页" id="jbXY2m_nlQn0PkkuFGhQ">
    <mxGraphModel dx="2000" dy="734" grid="1" gridSize="10" guides="1" tooltips="1" connect="1" arrows="1" fold="1" page="1" pageScale="1" pageWidth="827" pageHeight="1169" math="0" shadow="0">
      <root>
        <mxCell id="0" />
        <mxCell id="1" parent="0" />
        <mxCell id="XAYEIgHnONUeyFPLP-jA-36" value="" style="rounded=0;whiteSpace=wrap;html=1;" vertex="1" parent="1">
          <mxGeometry x="-60" y="30" width="910" height="600" as="geometry" />
        </mxCell>
        <mxCell id="XAYEIgHnONUeyFPLP-jA-21" style="edgeStyle=none;rounded=0;orthogonalLoop=1;jettySize=auto;html=1;exitX=0.5;exitY=1;exitDx=0;exitDy=0;" edge="1" parent="1" source="XAYEIgHnONUeyFPLP-jA-20" target="XAYEIgHnONUeyFPLP-jA-2">
          <mxGeometry relative="1" as="geometry" />
        </mxCell>
        <mxCell id="XAYEIgHnONUeyFPLP-jA-22" value="手动/自动导入" style="edgeLabel;html=1;align=center;verticalAlign=middle;resizable=0;points=[];" vertex="1" connectable="0" parent="XAYEIgHnONUeyFPLP-jA-21">
          <mxGeometry x="-0.0403" y="2" relative="1" as="geometry">
            <mxPoint as="offset" />
          </mxGeometry>
        </mxCell>
        <mxCell id="XAYEIgHnONUeyFPLP-jA-20" value="" style="rounded=0;whiteSpace=wrap;html=1;fillColor=#fff2cc;strokeColor=#d6b656;" vertex="1" parent="1">
          <mxGeometry x="-22.5" y="50" width="285" height="80" as="geometry" />
        </mxCell>
        <mxCell id="XAYEIgHnONUeyFPLP-jA-23" style="edgeStyle=none;rounded=0;orthogonalLoop=1;jettySize=auto;html=1;entryX=0;entryY=0.25;entryDx=0;entryDy=0;" edge="1" parent="1">
          <mxGeometry relative="1" as="geometry">
            <mxPoint x="200" y="262" as="sourcePoint" />
            <mxPoint x="450" y="260.5" as="targetPoint" />
          </mxGeometry>
        </mxCell>
        <mxCell id="XAYEIgHnONUeyFPLP-jA-24" value="&lt;b&gt;1、现状：手动导出后导入快销+&lt;/b&gt;" style="edgeLabel;html=1;align=center;verticalAlign=middle;resizable=0;points=[];" vertex="1" connectable="0" parent="XAYEIgHnONUeyFPLP-jA-23">
          <mxGeometry x="-0.2946" y="3" relative="1" as="geometry">
            <mxPoint x="32" as="offset" />
          </mxGeometry>
        </mxCell>
        <mxCell id="XAYEIgHnONUeyFPLP-jA-2" value="&lt;font style=&quot;font-size: 24px;&quot;&gt;&lt;b&gt;吉客云&lt;br&gt;订单&lt;/b&gt;&lt;/font&gt;" style="rounded=0;whiteSpace=wrap;html=1;fillColor=#dae8fc;strokeColor=#6c8ebf;" vertex="1" parent="1">
          <mxGeometry x="40" y="220" width="160" height="90" as="geometry" />
        </mxCell>
        <mxCell id="XAYEIgHnONUeyFPLP-jA-27" style="edgeStyle=none;rounded=0;orthogonalLoop=1;jettySize=auto;html=1;exitX=0;exitY=0.75;exitDx=0;exitDy=0;entryX=1;entryY=0.75;entryDx=0;entryDy=0;" edge="1" parent="1">
          <mxGeometry relative="1" as="geometry">
            <mxPoint x="450" y="282.5" as="sourcePoint" />
            <mxPoint x="200" y="282.5" as="targetPoint" />
          </mxGeometry>
        </mxCell>
        <mxCell id="XAYEIgHnONUeyFPLP-jA-28" value="3、现状：物流手动导出更新到吉客云" style="edgeLabel;html=1;align=center;verticalAlign=middle;resizable=0;points=[];fontStyle=1" vertex="1" connectable="0" parent="XAYEIgHnONUeyFPLP-jA-27">
          <mxGeometry x="0.5039" y="-1" relative="1" as="geometry">
            <mxPoint x="68" y="-6" as="offset" />
          </mxGeometry>
        </mxCell>
        <mxCell id="XAYEIgHnONUeyFPLP-jA-3" value="&lt;font style=&quot;font-size: 24px;&quot;&gt;&lt;b&gt;快销+&lt;br&gt;订单&lt;/b&gt;&lt;/font&gt;" style="rounded=0;whiteSpace=wrap;html=1;fillColor=#d5e8d4;strokeColor=#82b366;" vertex="1" parent="1">
          <mxGeometry x="450" y="220" width="160" height="90" as="geometry" />
        </mxCell>
        <mxCell id="XAYEIgHnONUeyFPLP-jA-15" value="" style="edgeStyle=none;rounded=0;orthogonalLoop=1;jettySize=auto;html=1;entryX=1;entryY=0.5;entryDx=0;entryDy=0;" edge="1" parent="1" source="XAYEIgHnONUeyFPLP-jA-13" target="XAYEIgHnONUeyFPLP-jA-3">
          <mxGeometry relative="1" as="geometry">
            <mxPoint x="690" y="265" as="targetPoint" />
          </mxGeometry>
        </mxCell>
        <mxCell id="XAYEIgHnONUeyFPLP-jA-32" value="2、统一发货，填写物流" style="edgeLabel;html=1;align=center;verticalAlign=middle;resizable=0;points=[];fontStyle=1" vertex="1" connectable="0" parent="XAYEIgHnONUeyFPLP-jA-15">
          <mxGeometry x="0.0533" y="1" relative="1" as="geometry">
            <mxPoint x="4" y="-1" as="offset" />
          </mxGeometry>
        </mxCell>
        <mxCell id="XAYEIgHnONUeyFPLP-jA-13" value="用户" style="shape=umlActor;verticalLabelPosition=bottom;verticalAlign=top;html=1;outlineConnect=0;" vertex="1" parent="1">
          <mxGeometry x="770" y="235" width="30" height="60" as="geometry" />
        </mxCell>
        <mxCell id="XAYEIgHnONUeyFPLP-jA-16" value="天猫" style="ellipse;whiteSpace=wrap;html=1;aspect=fixed;" vertex="1" parent="1">
          <mxGeometry x="12.5" y="60" width="50" height="50" as="geometry" />
        </mxCell>
        <mxCell id="XAYEIgHnONUeyFPLP-jA-17" value="抖音" style="ellipse;whiteSpace=wrap;html=1;aspect=fixed;" vertex="1" parent="1">
          <mxGeometry x="72.5" y="60" width="50" height="50" as="geometry" />
        </mxCell>
        <mxCell id="XAYEIgHnONUeyFPLP-jA-18" value="小程序" style="ellipse;whiteSpace=wrap;html=1;aspect=fixed;" vertex="1" parent="1">
          <mxGeometry x="132.5" y="60" width="50" height="50" as="geometry" />
        </mxCell>
        <mxCell id="XAYEIgHnONUeyFPLP-jA-19" value="其他" style="ellipse;whiteSpace=wrap;html=1;aspect=fixed;" vertex="1" parent="1">
          <mxGeometry x="192.5" y="60" width="50" height="50" as="geometry" />
        </mxCell>
        <mxCell id="XAYEIgHnONUeyFPLP-jA-33" value="&lt;h1 style=&quot;margin-top: 0px;&quot;&gt;当前需求&lt;/h1&gt;&lt;p&gt;&lt;b&gt;【研发】1：吉客云订单 同步到 快消+ 动作，实现自动化（定时任务）&lt;br&gt;【研发】2：快消+订单发货后的物流信息，调吉客云接口，进行物流单号回填（自动化）&lt;/b&gt;&lt;br&gt;【业务】3：吉客云这边也需要快销+订单数据信息，目前方案：吉客云提供导入模板，快销+进行填充，暂定手动导入&lt;/p&gt;" style="text;html=1;whiteSpace=wrap;overflow=hidden;rounded=0;" vertex="1" parent="1">
          <mxGeometry x="30" y="350" width="630" height="100" as="geometry" />
        </mxCell>
        <mxCell id="XAYEIgHnONUeyFPLP-jA-35" value="&lt;h1 style=&quot;margin-top: 0px;&quot;&gt;其他考虑点&lt;/h1&gt;&lt;p&gt;1、吉客云接口收费情况&lt;br&gt;2、同步频率&lt;br&gt;3、数据补偿&lt;br&gt;4、数据对齐逻辑&lt;/p&gt;" style="text;html=1;whiteSpace=wrap;overflow=hidden;rounded=0;" vertex="1" parent="1">
          <mxGeometry x="40" y="490" width="360" height="120" as="geometry" />
        </mxCell>
      </root>
    </mxGraphModel>
  </diagram>
</mxfile>
